<?xml version="1.0" encoding="UTF-8"?>
<svg id="Camada_1" data-name="Camada 1" xmlns="http://www.w3.org/2000/svg" viewBox="0 0 530.79 435.45">
  <defs>
    <style>
      .cls-1 {
        fill: none;
      }

      .cls-2 {
        fill: #6d3881;
      }
    </style>
  </defs>
  <path class="cls-2" d="M376,85.04c-54.34,0-84.38,35.94-89.71,42.43-1.05-2.08-2.39-3.94-4-5.55l-16.81-16.81-16.81,16.81c-1.61,1.61-2.95,3.48-4,5.55-5.33-6.49-35.37-42.43-89.71-42.43h-69.75s.56,12.62,3.28,24.61c0,0,13.54,74.42,90.92,97.78-10.66,16.42-16.32,35.63-16.32,55.44,0,30.23,14.26,52.32,14.26,52.32,0,0,18.41-2.92,38.07-14.93l11.18,11.28c6.88,6.95,15.63,6.46,15.73,6.46-.06,5.92,2.19,11.44,6.36,15.61l16.81,16.81,16.81-16.81c4.17-4.17,6.41-9.69,6.36-15.61.1,0,8.85.49,15.73-6.46l11.18-11.28c19.65,12.01,38.06,14.93,38.07,14.93,0,0,14.26-22.09,14.26-52.32,0-19.81-5.66-39.02-16.32-55.44,77.37-23.36,90.92-97.78,90.92-97.78,2.72-11.99,3.28-24.61,3.28-24.61h-69.75ZM336.44,104.17c-9.41,47.24-41.94,73.26-64.43,84.52.95-8.02,8.16-61.51,64.43-84.52ZM257.62,130.87l7.86-7.85,7.86,7.85c4.35,4.35,2.78,10.17,0,12.95l-7.86,7.86-7.86-7.86c-2.78-2.78-4.35-8.6,0-12.95ZM271.81,252.38c3.4,6.92,7.51,13.51,12.24,19.64-4.06.91-7.74,2.94-10.67,5.9l-1.56,1.58v-27.11ZM258.95,188.68c-22.49-11.25-55.02-37.28-64.43-84.52,56.27,23,63.48,76.5,64.43,84.52ZM190.5,211.27c1.4.19,2.69.28,3.94.28,4.76,0,22.29-1.78,28.7-20.57l1.84-5.38-5.38-1.84c-16.56-5.64-30.42,4.03-35.84,13.1-71.4-20.87-84.05-89.19-84.05-89.19-.85-3.67-1.53-7.46-2.03-11.25h57.28c9.23,0,18.41,1.21,27.29,3.61,4.5,30.17,19.3,57.77,41.4,78.05,9.81,9,20.93,16.46,33.06,22.17-57.78,27.21-71.46,80.72-74.36,99.7-8.19-18.39-15.59-54.29,8.16-88.69ZM195.37,200.13c1.67-1.95,3.7-3.52,6.05-4.67,2.27-1.12,4.76-1.76,7.41-1.92-1.67,1.95-3.7,3.52-6.05,4.67-2.28,1.12-4.76,1.76-7.4,1.92ZM194.15,298.27c3.21-17.61,16.35-62.33,64.99-86.55-4.54,44.88-35.09,74.42-64.99,86.55ZM259.15,252.38v27.11l-1.56-1.58c-2.93-2.96-6.61-4.99-10.67-5.9,4.73-6.13,8.83-12.72,12.24-19.64ZM248.54,302.67c-2.75,2.73-8.55,4.41-12.96-.05l-7.89-7.96,7.95-7.88c3.65-3.62,9.41-3.54,12.96.04l7.9,7.96-7.95,7.88ZM273.33,324.65l-7.86,7.85-7.86-7.85c-4-4-3.18-9.77,0-12.95l7.86-7.86,7.86,7.86c3.18,3.18,4,8.95,0,12.95ZM295.38,302.62c-4.42,4.46-10.21,2.78-12.96.05l-7.95-7.88,7.9-7.96c3.55-3.58,9.31-3.66,12.96-.04l7.95,7.88-7.89,7.96ZM271.82,211.72c48.64,24.22,61.78,68.94,64.99,86.55-29.89-12.13-60.44-41.67-64.99-86.55ZM431.25,107.67s-12.65,68.33-84.05,89.19c-5.42-9.07-19.28-18.75-35.84-13.1l-5.38,1.84,1.84,5.38c6.41,18.79,23.94,20.57,28.7,20.57,1.24,0,2.54-.09,3.94-.28,23.74,34.4,16.35,70.29,8.16,88.69-2.9-18.98-16.57-72.49-74.36-99.7,12.13-5.72,23.25-13.17,33.06-22.17,22.1-20.28,36.9-47.89,41.4-78.05,8.88-2.39,18.06-3.61,27.29-3.61h57.28c-.5,3.8-1.18,7.58-2.03,11.25ZM335.58,200.13c-2.64-.15-5.13-.8-7.4-1.92-2.35-1.15-4.38-2.72-6.05-4.67,2.65.16,5.13.8,7.41,1.92,2.35,1.15,4.38,2.72,6.05,4.67Z"/>
  <rect class="cls-1" width="530.79" height="435.45"/>
</svg>