<svg xmlns="http://www.w3.org/2000/svg" width="64" height="64" viewBox="0 0 64 64">
  <rect width="64" height="64" fill="#9333EA" rx="12" />
  <path
    d="M41.8,39.5c4-4.3,6-9.9,7.3-12.3c-2.1,0.8-5.3,2.5-6.5,4.3c0.2-3-1.3-6.9-3.2-9.9c0.7,3.2,0.6,7.5-0.2,10.4
    c-1.3-2.3-4.3-4.1-7.2-5.2c2.2,1.7,4.9,4.5,5.2,7.3c-1.6-0.8-5.5-0.6-8.3-0.2c2.9,0.5,6.5,1.7,8.2,3.2c-1.7,0.7-4.9,3.1-6.6,5.2
    c2.5-1.3,5.8-2.3,8.4-2.3c-0.1,2.2-1.6,5.7-3,8c1.7-1.6,4.1-4.8,4.7-7.1L41.8,39.5z"
    fill="white"
  />
  <path
    d="M22.2,24.5c-4,4.3-6,9.9-7.3,12.3c2.1-0.8,5.3-2.5,6.5-4.3c-0.2,3,1.3,6.9,3.2,9.9c-0.7-3.2-0.6-7.5,0.2-10.4
    c1.3,2.3,4.3,4.1,7.2,5.2c-2.2-1.7-4.9-4.5-5.2-7.3c1.6,0.8,5.5,0.6,8.3,0.2c-2.9-0.5-6.5-1.7-8.2-3.2c1.7-0.7,4.9-3.1,6.6-5.2
    c-2.5,1.3-5.8,2.3-8.4,2.3c0.1-2.2,1.6-5.7,3-8c-1.7,1.6-4.1,4.8-4.7,7.1L22.2,24.5z"
    fill="white"
  />
</svg>